<?xml version="1.0" encoding="utf-8"?>
<!-- Generator: Adobe Illustrator 17.1.0, SVG Export Plug-In . SVG Version: 6.00 Build 0)  -->
<!DOCTYPE svg PUBLIC "-//W3C//DTD SVG 1.1//EN" "http://www.w3.org/Graphics/SVG/1.1/DTD/svg11.dtd">
<svg version="1.1" id="Layer_1" xmlns="http://www.w3.org/2000/svg" xmlns:xlink="http://www.w3.org/1999/xlink" x="0px" y="0px"
	 viewBox="0 0 595.3 841.9" enable-background="new 0 0 595.3 841.9" xml:space="preserve">
<path fill="#0082C8" d="M70.2,193.5v227.4c0,146.5,200.7,227.4,227.4,227.4s227.4-80.9,227.4-227.4V193.5H70.2z M373.9,530H221.4
	v-43.5h152.5V530z M375.9,419.6l-46.8,35.5c0,0-25.4-42.1-33.4-59.5c-8,19.4-33.4,59.5-33.4,59.5L214,419.6c0,0,38.1-42.1,47.5-49.5
	c-9.4-0.7-66.2-12.7-66.2-12.7l18.7-55.5c0,0,43.5,16.1,61.5,27.4c-3.3-17.4-7.4-66.9-7.4-66.9h57.5c0,0-4,52.2-8,66.9
	c8-4,62.9-27.4,62.9-27.4l18.1,55.5c0,0-50.2,12-67.6,12.7C343.1,379.5,375.9,419.6,375.9,419.6z"/>
</svg>
